<mxfile host="app.diagrams.net" modified="2024-07-05T16:18:42.880Z" agent="Mozilla/5.0 (Windows NT 10.0; Win64; x64) AppleWebKit/537.36 (KHTML, like Gecko) Chrome/126.0.0.0 Safari/537.36" etag="c9vbHKd4K3YB-IYLTRmm" version="24.6.4" type="device">
  <diagram name="Page-1" id="vu1yrpMEesfIW1NTZBBC">
    <mxGraphModel dx="2049" dy="1120" grid="1" gridSize="10" guides="1" tooltips="1" connect="1" arrows="1" fold="1" page="1" pageScale="1" pageWidth="850" pageHeight="1100" math="0" shadow="0">
      <root>
        <mxCell id="0" />
        <mxCell id="1" parent="0" />
        <mxCell id="soyxiaX26y3hWT42Gcl5-1" value="IceSu hotel" style="text;html=1;align=center;verticalAlign=middle;whiteSpace=wrap;rounded=0;" parent="1" vertex="1">
          <mxGeometry x="383" y="60" width="85" height="30" as="geometry" />
        </mxCell>
        <mxCell id="soyxiaX26y3hWT42Gcl5-11" value="พนักงาน" style="rounded=0;whiteSpace=wrap;html=1;" parent="1" vertex="1">
          <mxGeometry x="190" y="180" width="120" height="60" as="geometry" />
        </mxCell>
        <mxCell id="soyxiaX26y3hWT42Gcl5-12" value="1" style="swimlane;fontStyle=0;childLayout=stackLayout;horizontal=1;startSize=30;horizontalStack=0;resizeParent=1;resizeParentMax=0;resizeLast=0;collapsible=1;marginBottom=0;whiteSpace=wrap;html=1;perimeterSpacing=1;swimlaneLine=1;rounded=1;" parent="1" vertex="1">
          <mxGeometry x="405" y="160" width="140" height="100" as="geometry" />
        </mxCell>
        <mxCell id="soyxiaX26y3hWT42Gcl5-13" value="จัการห้องพัก" style="text;strokeColor=none;fillColor=none;align=center;verticalAlign=middle;spacingLeft=4;spacingRight=4;overflow=hidden;points=[[0,0.5],[1,0.5]];portConstraint=eastwest;rotatable=0;whiteSpace=wrap;html=1;strokeWidth=1;perimeterSpacing=1;swimlaneLine=1;rounded=1;" parent="soyxiaX26y3hWT42Gcl5-12" vertex="1">
          <mxGeometry y="30" width="140" height="70" as="geometry" />
        </mxCell>
        <mxCell id="soyxiaX26y3hWT42Gcl5-16" style="edgeStyle=orthogonalEdgeStyle;rounded=0;orthogonalLoop=1;jettySize=auto;html=1;entryX=0.011;entryY=0.296;entryDx=0;entryDy=0;entryPerimeter=0;" parent="1" source="soyxiaX26y3hWT42Gcl5-11" target="soyxiaX26y3hWT42Gcl5-13" edge="1">
          <mxGeometry relative="1" as="geometry" />
        </mxCell>
        <mxCell id="soyxiaX26y3hWT42Gcl5-78" style="edgeStyle=orthogonalEdgeStyle;rounded=0;orthogonalLoop=1;jettySize=auto;html=1;" parent="1" source="soyxiaX26y3hWT42Gcl5-17" target="soyxiaX26y3hWT42Gcl5-58" edge="1">
          <mxGeometry relative="1" as="geometry" />
        </mxCell>
        <mxCell id="soyxiaX26y3hWT42Gcl5-17" value="2" style="swimlane;fontStyle=0;childLayout=stackLayout;horizontal=1;startSize=30;horizontalStack=0;resizeParent=1;resizeParentMax=0;resizeLast=0;collapsible=1;marginBottom=0;whiteSpace=wrap;html=1;perimeterSpacing=1;swimlaneLine=1;rounded=1;" parent="1" vertex="1">
          <mxGeometry x="480" y="620" width="140" height="100" as="geometry" />
        </mxCell>
        <mxCell id="soyxiaX26y3hWT42Gcl5-18" value="นำเข้าระบบ" style="text;strokeColor=none;fillColor=none;align=center;verticalAlign=middle;spacingLeft=4;spacingRight=4;overflow=hidden;points=[[0,0.5],[1,0.5]];portConstraint=eastwest;rotatable=0;whiteSpace=wrap;html=1;strokeWidth=1;perimeterSpacing=1;swimlaneLine=1;rounded=1;" parent="soyxiaX26y3hWT42Gcl5-17" vertex="1">
          <mxGeometry y="30" width="140" height="70" as="geometry" />
        </mxCell>
        <mxCell id="soyxiaX26y3hWT42Gcl5-26" value="เลขห้องพัก" style="rounded=0;whiteSpace=wrap;html=1;align=center;" parent="1" vertex="1">
          <mxGeometry x="450" y="290" width="200" height="40" as="geometry" />
        </mxCell>
        <mxCell id="soyxiaX26y3hWT42Gcl5-27" value="" style="endArrow=none;html=1;rounded=0;entryX=0.25;entryY=0;entryDx=0;entryDy=0;exitX=0.25;exitY=1;exitDx=0;exitDy=0;" parent="1" source="soyxiaX26y3hWT42Gcl5-26" target="soyxiaX26y3hWT42Gcl5-26" edge="1">
          <mxGeometry width="50" height="50" relative="1" as="geometry">
            <mxPoint x="410" y="440" as="sourcePoint" />
            <mxPoint x="460" y="390" as="targetPoint" />
          </mxGeometry>
        </mxCell>
        <mxCell id="soyxiaX26y3hWT42Gcl5-28" value="D1" style="text;html=1;align=center;verticalAlign=middle;whiteSpace=wrap;rounded=0;" parent="1" vertex="1">
          <mxGeometry x="450" y="295" width="60" height="30" as="geometry" />
        </mxCell>
        <mxCell id="soyxiaX26y3hWT42Gcl5-29" value="รายละเอียดผู้เข้าพัก&amp;nbsp; &amp;nbsp; &amp;nbsp; &amp;nbsp; &amp;nbsp;" style="rounded=0;whiteSpace=wrap;html=1;align=right;" parent="1" vertex="1">
          <mxGeometry x="450" y="350" width="200" height="40" as="geometry" />
        </mxCell>
        <mxCell id="soyxiaX26y3hWT42Gcl5-30" value="" style="endArrow=none;html=1;rounded=0;entryX=0.25;entryY=0;entryDx=0;entryDy=0;exitX=0.25;exitY=1;exitDx=0;exitDy=0;" parent="1" source="soyxiaX26y3hWT42Gcl5-29" target="soyxiaX26y3hWT42Gcl5-29" edge="1">
          <mxGeometry width="50" height="50" relative="1" as="geometry">
            <mxPoint x="410" y="500" as="sourcePoint" />
            <mxPoint x="460" y="450" as="targetPoint" />
          </mxGeometry>
        </mxCell>
        <mxCell id="soyxiaX26y3hWT42Gcl5-31" value="D2" style="text;html=1;align=center;verticalAlign=middle;whiteSpace=wrap;rounded=0;" parent="1" vertex="1">
          <mxGeometry x="450" y="355" width="60" height="30" as="geometry" />
        </mxCell>
        <mxCell id="soyxiaX26y3hWT42Gcl5-32" value="ประเภทเตียง" style="rounded=0;whiteSpace=wrap;html=1;align=center;" parent="1" vertex="1">
          <mxGeometry x="450" y="410" width="200" height="40" as="geometry" />
        </mxCell>
        <mxCell id="soyxiaX26y3hWT42Gcl5-33" value="" style="endArrow=none;html=1;rounded=0;entryX=0.25;entryY=0;entryDx=0;entryDy=0;exitX=0.25;exitY=1;exitDx=0;exitDy=0;" parent="1" source="soyxiaX26y3hWT42Gcl5-32" target="soyxiaX26y3hWT42Gcl5-32" edge="1">
          <mxGeometry width="50" height="50" relative="1" as="geometry">
            <mxPoint x="410" y="560" as="sourcePoint" />
            <mxPoint x="460" y="510" as="targetPoint" />
          </mxGeometry>
        </mxCell>
        <mxCell id="soyxiaX26y3hWT42Gcl5-34" value="D3" style="text;html=1;align=center;verticalAlign=middle;whiteSpace=wrap;rounded=0;" parent="1" vertex="1">
          <mxGeometry x="450" y="415" width="60" height="30" as="geometry" />
        </mxCell>
        <mxCell id="soyxiaX26y3hWT42Gcl5-35" value="จำนวนผู้เข้าพัก" style="rounded=0;whiteSpace=wrap;html=1;align=center;" parent="1" vertex="1">
          <mxGeometry x="450" y="470" width="200" height="40" as="geometry" />
        </mxCell>
        <mxCell id="soyxiaX26y3hWT42Gcl5-36" value="" style="endArrow=none;html=1;rounded=0;entryX=0.25;entryY=0;entryDx=0;entryDy=0;exitX=0.25;exitY=1;exitDx=0;exitDy=0;" parent="1" source="soyxiaX26y3hWT42Gcl5-35" target="soyxiaX26y3hWT42Gcl5-35" edge="1">
          <mxGeometry width="50" height="50" relative="1" as="geometry">
            <mxPoint x="410" y="620" as="sourcePoint" />
            <mxPoint x="460" y="570" as="targetPoint" />
          </mxGeometry>
        </mxCell>
        <mxCell id="soyxiaX26y3hWT42Gcl5-37" value="D4" style="text;html=1;align=center;verticalAlign=middle;whiteSpace=wrap;rounded=0;" parent="1" vertex="1">
          <mxGeometry x="450" y="475" width="60" height="30" as="geometry" />
        </mxCell>
        <mxCell id="soyxiaX26y3hWT42Gcl5-38" value="จำนวนคืนที่พัก" style="rounded=0;whiteSpace=wrap;html=1;align=center;" parent="1" vertex="1">
          <mxGeometry x="450" y="530" width="200" height="40" as="geometry" />
        </mxCell>
        <mxCell id="soyxiaX26y3hWT42Gcl5-39" value="" style="endArrow=none;html=1;rounded=0;entryX=0.25;entryY=0;entryDx=0;entryDy=0;exitX=0.25;exitY=1;exitDx=0;exitDy=0;" parent="1" source="soyxiaX26y3hWT42Gcl5-38" target="soyxiaX26y3hWT42Gcl5-38" edge="1">
          <mxGeometry width="50" height="50" relative="1" as="geometry">
            <mxPoint x="410" y="680" as="sourcePoint" />
            <mxPoint x="460" y="630" as="targetPoint" />
          </mxGeometry>
        </mxCell>
        <mxCell id="soyxiaX26y3hWT42Gcl5-40" value="D5" style="text;html=1;align=center;verticalAlign=middle;whiteSpace=wrap;rounded=0;" parent="1" vertex="1">
          <mxGeometry x="450" y="535" width="60" height="30" as="geometry" />
        </mxCell>
        <mxCell id="soyxiaX26y3hWT42Gcl5-41" value="" style="endArrow=none;html=1;rounded=0;entryX=0.164;entryY=0.987;entryDx=0;entryDy=0;entryPerimeter=0;" parent="1" target="soyxiaX26y3hWT42Gcl5-13" edge="1">
          <mxGeometry width="50" height="50" relative="1" as="geometry">
            <mxPoint x="427" y="550" as="sourcePoint" />
            <mxPoint x="420" y="330" as="targetPoint" />
          </mxGeometry>
        </mxCell>
        <mxCell id="soyxiaX26y3hWT42Gcl5-42" value="" style="endArrow=classic;html=1;rounded=0;entryX=0;entryY=0.5;entryDx=0;entryDy=0;" parent="1" target="soyxiaX26y3hWT42Gcl5-28" edge="1">
          <mxGeometry width="50" height="50" relative="1" as="geometry">
            <mxPoint x="430" y="310" as="sourcePoint" />
            <mxPoint x="290" y="400" as="targetPoint" />
          </mxGeometry>
        </mxCell>
        <mxCell id="soyxiaX26y3hWT42Gcl5-43" value="" style="endArrow=classic;html=1;rounded=0;entryX=0;entryY=0.5;entryDx=0;entryDy=0;" parent="1" edge="1">
          <mxGeometry width="50" height="50" relative="1" as="geometry">
            <mxPoint x="430" y="369.76" as="sourcePoint" />
            <mxPoint x="450" y="369.76" as="targetPoint" />
          </mxGeometry>
        </mxCell>
        <mxCell id="soyxiaX26y3hWT42Gcl5-44" value="" style="endArrow=classic;html=1;rounded=0;entryX=0;entryY=0.5;entryDx=0;entryDy=0;" parent="1" edge="1">
          <mxGeometry width="50" height="50" relative="1" as="geometry">
            <mxPoint x="430" y="550" as="sourcePoint" />
            <mxPoint x="451" y="550" as="targetPoint" />
          </mxGeometry>
        </mxCell>
        <mxCell id="soyxiaX26y3hWT42Gcl5-45" value="" style="endArrow=classic;html=1;rounded=0;entryX=0;entryY=0.5;entryDx=0;entryDy=0;" parent="1" edge="1">
          <mxGeometry width="50" height="50" relative="1" as="geometry">
            <mxPoint x="430" y="429.76" as="sourcePoint" />
            <mxPoint x="450" y="429.76" as="targetPoint" />
          </mxGeometry>
        </mxCell>
        <mxCell id="soyxiaX26y3hWT42Gcl5-46" value="" style="endArrow=classic;html=1;rounded=0;entryX=0;entryY=0.5;entryDx=0;entryDy=0;" parent="1" edge="1">
          <mxGeometry width="50" height="50" relative="1" as="geometry">
            <mxPoint x="430" y="490" as="sourcePoint" />
            <mxPoint x="450" y="489.76" as="targetPoint" />
          </mxGeometry>
        </mxCell>
        <mxCell id="soyxiaX26y3hWT42Gcl5-47" value="" style="endArrow=none;html=1;rounded=0;" parent="1" edge="1">
          <mxGeometry width="50" height="50" relative="1" as="geometry">
            <mxPoint x="680" y="680" as="sourcePoint" />
            <mxPoint x="680" y="310" as="targetPoint" />
          </mxGeometry>
        </mxCell>
        <mxCell id="soyxiaX26y3hWT42Gcl5-48" value="" style="endArrow=none;html=1;rounded=0;exitX=1;exitY=0.5;exitDx=0;exitDy=0;" parent="1" source="soyxiaX26y3hWT42Gcl5-26" edge="1">
          <mxGeometry width="50" height="50" relative="1" as="geometry">
            <mxPoint x="730" y="470" as="sourcePoint" />
            <mxPoint x="680" y="310" as="targetPoint" />
          </mxGeometry>
        </mxCell>
        <mxCell id="soyxiaX26y3hWT42Gcl5-49" value="" style="endArrow=none;html=1;rounded=0;exitX=1;exitY=0.5;exitDx=0;exitDy=0;" parent="1" edge="1">
          <mxGeometry width="50" height="50" relative="1" as="geometry">
            <mxPoint x="650" y="369.8" as="sourcePoint" />
            <mxPoint x="680" y="369.8" as="targetPoint" />
          </mxGeometry>
        </mxCell>
        <mxCell id="soyxiaX26y3hWT42Gcl5-50" value="" style="endArrow=none;html=1;rounded=0;exitX=1;exitY=0.5;exitDx=0;exitDy=0;" parent="1" edge="1">
          <mxGeometry width="50" height="50" relative="1" as="geometry">
            <mxPoint x="650" y="429.8" as="sourcePoint" />
            <mxPoint x="680" y="429.8" as="targetPoint" />
          </mxGeometry>
        </mxCell>
        <mxCell id="soyxiaX26y3hWT42Gcl5-51" value="" style="endArrow=none;html=1;rounded=0;exitX=1;exitY=0.5;exitDx=0;exitDy=0;" parent="1" edge="1">
          <mxGeometry width="50" height="50" relative="1" as="geometry">
            <mxPoint x="650" y="489.8" as="sourcePoint" />
            <mxPoint x="680" y="489.8" as="targetPoint" />
          </mxGeometry>
        </mxCell>
        <mxCell id="soyxiaX26y3hWT42Gcl5-52" value="" style="endArrow=none;html=1;rounded=0;exitX=1;exitY=0.5;exitDx=0;exitDy=0;" parent="1" edge="1">
          <mxGeometry width="50" height="50" relative="1" as="geometry">
            <mxPoint x="650" y="550" as="sourcePoint" />
            <mxPoint x="680" y="550" as="targetPoint" />
          </mxGeometry>
        </mxCell>
        <mxCell id="soyxiaX26y3hWT42Gcl5-53" value="" style="endArrow=classic;html=1;rounded=0;entryX=1.001;entryY=0.434;entryDx=0;entryDy=0;entryPerimeter=0;" parent="1" target="soyxiaX26y3hWT42Gcl5-18" edge="1">
          <mxGeometry width="50" height="50" relative="1" as="geometry">
            <mxPoint x="680" y="680" as="sourcePoint" />
            <mxPoint x="780" y="660" as="targetPoint" />
          </mxGeometry>
        </mxCell>
        <mxCell id="soyxiaX26y3hWT42Gcl5-55" value="Monitoring" style="text;html=1;align=center;verticalAlign=middle;whiteSpace=wrap;rounded=0;" parent="1" vertex="1">
          <mxGeometry x="180" y="385" width="60" height="30" as="geometry" />
        </mxCell>
        <mxCell id="soyxiaX26y3hWT42Gcl5-79" style="edgeStyle=orthogonalEdgeStyle;rounded=0;orthogonalLoop=1;jettySize=auto;html=1;entryX=0;entryY=0.5;entryDx=0;entryDy=0;" parent="1" source="soyxiaX26y3hWT42Gcl5-56" target="soyxiaX26y3hWT42Gcl5-11" edge="1">
          <mxGeometry relative="1" as="geometry" />
        </mxCell>
        <mxCell id="soyxiaX26y3hWT42Gcl5-56" value="ลูกค้า" style="rounded=0;whiteSpace=wrap;html=1;" parent="1" vertex="1">
          <mxGeometry x="78" y="820" width="120" height="60" as="geometry" />
        </mxCell>
        <mxCell id="soyxiaX26y3hWT42Gcl5-58" value="4" style="swimlane;fontStyle=0;childLayout=stackLayout;horizontal=1;startSize=30;horizontalStack=0;resizeParent=1;resizeParentMax=0;resizeLast=0;collapsible=1;marginBottom=0;whiteSpace=wrap;html=1;perimeterSpacing=1;swimlaneLine=1;rounded=1;" parent="1" vertex="1">
          <mxGeometry x="600" y="800" width="140" height="100" as="geometry" />
        </mxCell>
        <mxCell id="soyxiaX26y3hWT42Gcl5-73" style="edgeStyle=orthogonalEdgeStyle;rounded=0;orthogonalLoop=1;jettySize=auto;html=1;strokeColor=default;endArrow=none;endFill=0;" parent="soyxiaX26y3hWT42Gcl5-58" source="soyxiaX26y3hWT42Gcl5-59" edge="1">
          <mxGeometry relative="1" as="geometry">
            <mxPoint x="-20" y="65" as="targetPoint" />
          </mxGeometry>
        </mxCell>
        <mxCell id="soyxiaX26y3hWT42Gcl5-59" value="หน้าเช็คห้องพัก" style="text;strokeColor=none;fillColor=none;align=center;verticalAlign=middle;spacingLeft=4;spacingRight=4;overflow=hidden;points=[[0,0.5],[1,0.5]];portConstraint=eastwest;rotatable=0;whiteSpace=wrap;html=1;strokeWidth=1;perimeterSpacing=1;swimlaneLine=1;rounded=1;" parent="soyxiaX26y3hWT42Gcl5-58" vertex="1">
          <mxGeometry y="30" width="140" height="70" as="geometry" />
        </mxCell>
        <mxCell id="soyxiaX26y3hWT42Gcl5-61" value="เลขห้องพัก" style="rounded=0;whiteSpace=wrap;html=1;align=center;" parent="1" vertex="1">
          <mxGeometry x="353" y="830" width="200" height="40" as="geometry" />
        </mxCell>
        <mxCell id="soyxiaX26y3hWT42Gcl5-62" value="" style="endArrow=none;html=1;rounded=0;entryX=0.25;entryY=0;entryDx=0;entryDy=0;exitX=0.25;exitY=1;exitDx=0;exitDy=0;" parent="1" source="soyxiaX26y3hWT42Gcl5-61" target="soyxiaX26y3hWT42Gcl5-61" edge="1">
          <mxGeometry width="50" height="50" relative="1" as="geometry">
            <mxPoint x="313" y="980" as="sourcePoint" />
            <mxPoint x="363" y="930" as="targetPoint" />
          </mxGeometry>
        </mxCell>
        <mxCell id="soyxiaX26y3hWT42Gcl5-76" style="edgeStyle=orthogonalEdgeStyle;rounded=0;orthogonalLoop=1;jettySize=auto;html=1;entryX=1;entryY=0.5;entryDx=0;entryDy=0;" parent="1" source="soyxiaX26y3hWT42Gcl5-63" target="soyxiaX26y3hWT42Gcl5-56" edge="1">
          <mxGeometry relative="1" as="geometry" />
        </mxCell>
        <mxCell id="soyxiaX26y3hWT42Gcl5-63" value="D1" style="text;html=1;align=center;verticalAlign=middle;whiteSpace=wrap;rounded=0;" parent="1" vertex="1">
          <mxGeometry x="353" y="835" width="60" height="30" as="geometry" />
        </mxCell>
        <mxCell id="soyxiaX26y3hWT42Gcl5-64" value="ประเภทเตียง" style="rounded=0;whiteSpace=wrap;html=1;align=center;" parent="1" vertex="1">
          <mxGeometry x="353" y="890" width="200" height="40" as="geometry" />
        </mxCell>
        <mxCell id="soyxiaX26y3hWT42Gcl5-65" value="" style="endArrow=none;html=1;rounded=0;entryX=0.25;entryY=0;entryDx=0;entryDy=0;exitX=0.25;exitY=1;exitDx=0;exitDy=0;" parent="1" source="soyxiaX26y3hWT42Gcl5-64" target="soyxiaX26y3hWT42Gcl5-64" edge="1">
          <mxGeometry width="50" height="50" relative="1" as="geometry">
            <mxPoint x="313" y="1040" as="sourcePoint" />
            <mxPoint x="363" y="990" as="targetPoint" />
          </mxGeometry>
        </mxCell>
        <mxCell id="soyxiaX26y3hWT42Gcl5-77" style="edgeStyle=orthogonalEdgeStyle;rounded=0;orthogonalLoop=1;jettySize=auto;html=1;endArrow=none;endFill=0;exitX=0;exitY=0.5;exitDx=0;exitDy=0;" parent="1" source="soyxiaX26y3hWT42Gcl5-66" edge="1">
          <mxGeometry relative="1" as="geometry">
            <mxPoint x="323" y="850" as="targetPoint" />
            <mxPoint x="466" y="910" as="sourcePoint" />
          </mxGeometry>
        </mxCell>
        <mxCell id="soyxiaX26y3hWT42Gcl5-66" value="D3" style="text;html=1;align=center;verticalAlign=middle;whiteSpace=wrap;rounded=0;" parent="1" vertex="1">
          <mxGeometry x="353" y="895" width="60" height="30" as="geometry" />
        </mxCell>
        <mxCell id="soyxiaX26y3hWT42Gcl5-71" value="" style="endArrow=none;html=1;rounded=0;" parent="1" edge="1">
          <mxGeometry width="50" height="50" relative="1" as="geometry">
            <mxPoint x="580" y="910" as="sourcePoint" />
            <mxPoint x="580" y="850" as="targetPoint" />
          </mxGeometry>
        </mxCell>
        <mxCell id="soyxiaX26y3hWT42Gcl5-74" value="" style="endArrow=none;html=1;rounded=0;exitX=1;exitY=0.5;exitDx=0;exitDy=0;" parent="1" source="soyxiaX26y3hWT42Gcl5-61" edge="1">
          <mxGeometry width="50" height="50" relative="1" as="geometry">
            <mxPoint x="650" y="1030" as="sourcePoint" />
            <mxPoint x="580" y="850" as="targetPoint" />
          </mxGeometry>
        </mxCell>
        <mxCell id="soyxiaX26y3hWT42Gcl5-75" value="" style="endArrow=none;html=1;rounded=0;exitX=1;exitY=0.5;exitDx=0;exitDy=0;" parent="1" edge="1">
          <mxGeometry width="50" height="50" relative="1" as="geometry">
            <mxPoint x="553" y="909.76" as="sourcePoint" />
            <mxPoint x="580" y="909.76" as="targetPoint" />
          </mxGeometry>
        </mxCell>
        <mxCell id="soyxiaX26y3hWT42Gcl5-80" value="จองห้องพัก" style="text;html=1;align=center;verticalAlign=middle;whiteSpace=wrap;rounded=0;" parent="1" vertex="1">
          <mxGeometry x="78" y="385" width="60" height="30" as="geometry" />
        </mxCell>
        <mxCell id="soyxiaX26y3hWT42Gcl5-85" style="edgeStyle=orthogonalEdgeStyle;rounded=0;orthogonalLoop=1;jettySize=auto;html=1;entryX=0.5;entryY=1;entryDx=0;entryDy=0;" parent="1" source="soyxiaX26y3hWT42Gcl5-82" target="soyxiaX26y3hWT42Gcl5-11" edge="1">
          <mxGeometry relative="1" as="geometry" />
        </mxCell>
        <mxCell id="soyxiaX26y3hWT42Gcl5-82" value="3" style="swimlane;fontStyle=0;childLayout=stackLayout;horizontal=1;startSize=30;horizontalStack=0;resizeParent=1;resizeParentMax=0;resizeLast=0;collapsible=1;marginBottom=0;whiteSpace=wrap;html=1;perimeterSpacing=1;swimlaneLine=1;rounded=1;" parent="1" vertex="1">
          <mxGeometry x="180" y="490" width="140" height="100" as="geometry" />
        </mxCell>
        <mxCell id="soyxiaX26y3hWT42Gcl5-83" value="ระบบโรงแรม" style="text;strokeColor=none;fillColor=none;align=center;verticalAlign=middle;spacingLeft=4;spacingRight=4;overflow=hidden;points=[[0,0.5],[1,0.5]];portConstraint=eastwest;rotatable=0;whiteSpace=wrap;html=1;strokeWidth=1;perimeterSpacing=1;swimlaneLine=1;rounded=1;" parent="soyxiaX26y3hWT42Gcl5-82" vertex="1">
          <mxGeometry y="30" width="140" height="70" as="geometry" />
        </mxCell>
        <mxCell id="soyxiaX26y3hWT42Gcl5-86" value="รายละเอียดห้องพักแต่ละห้อง&amp;nbsp;" style="rounded=0;whiteSpace=wrap;html=1;align=right;" parent="1" vertex="1">
          <mxGeometry x="225" y="660" width="200" height="40" as="geometry" />
        </mxCell>
        <mxCell id="soyxiaX26y3hWT42Gcl5-87" value="" style="endArrow=none;html=1;rounded=0;entryX=0.25;entryY=0;entryDx=0;entryDy=0;exitX=0.25;exitY=1;exitDx=0;exitDy=0;" parent="1" source="soyxiaX26y3hWT42Gcl5-86" target="soyxiaX26y3hWT42Gcl5-86" edge="1">
          <mxGeometry width="50" height="50" relative="1" as="geometry">
            <mxPoint x="185" y="810" as="sourcePoint" />
            <mxPoint x="235" y="760" as="targetPoint" />
          </mxGeometry>
        </mxCell>
        <mxCell id="soyxiaX26y3hWT42Gcl5-88" value="D6" style="text;html=1;align=center;verticalAlign=middle;whiteSpace=wrap;rounded=0;" parent="1" vertex="1">
          <mxGeometry x="225" y="665" width="60" height="30" as="geometry" />
        </mxCell>
        <mxCell id="soyxiaX26y3hWT42Gcl5-89" style="edgeStyle=orthogonalEdgeStyle;rounded=0;orthogonalLoop=1;jettySize=auto;html=1;entryX=0.996;entryY=0.613;entryDx=0;entryDy=0;entryPerimeter=0;" parent="1" source="soyxiaX26y3hWT42Gcl5-18" target="soyxiaX26y3hWT42Gcl5-86" edge="1">
          <mxGeometry relative="1" as="geometry">
            <mxPoint x="429.9999999999998" y="685" as="targetPoint" />
          </mxGeometry>
        </mxCell>
        <mxCell id="soyxiaX26y3hWT42Gcl5-93" style="edgeStyle=orthogonalEdgeStyle;rounded=0;orthogonalLoop=1;jettySize=auto;html=1;entryX=0.477;entryY=0.991;entryDx=0;entryDy=0;entryPerimeter=0;" parent="1" source="soyxiaX26y3hWT42Gcl5-86" target="soyxiaX26y3hWT42Gcl5-83" edge="1">
          <mxGeometry relative="1" as="geometry" />
        </mxCell>
      </root>
    </mxGraphModel>
  </diagram>
</mxfile>
